<?xml version="1.0" encoding="utf-8"?>
<!-- Generator: Adobe Illustrator 22.0.1, SVG Export Plug-In . SVG Version: 6.00 Build 0)  -->
<svg version="1.1" id="Layer_1" xmlns="http://www.w3.org/2000/svg" xmlns:xlink="http://www.w3.org/1999/xlink" x="0px" y="0px"
	 viewBox="0 0 145 292.5" style="enable-background:new 0 0 145 292.5;" xml:space="preserve">
<style type="text/css">
	.st0{fill:#FFFFFF;}
	.st1{fill:#1D1D1B;}
</style>
<g>
	<path class="st0" d="M109.8,211.4c0,0,8-10.8,9.4-28.2c1.3-17.4,0.3-35.8,0.1-43.4c-0.1-7.6-1.2-11.1,0.9-20.3
		c2.1-9.2,9.4-26.3,11.4-31.3c2.1-5,7.6-22.3,7.7-29.7c0.1-7.4-2.1-18.6-5.3-19.8c-3.3-1.2-8.5-1.2-9.8,1.2
		c-1.3,2.4-5.9,13.7-6.1,17.7s-2.4,17.4-6.2,23.3c-3.9,5.9-11.7,27.6-11.7,27.6s-4.9-2.1-7-7.4S91,86.5,90.4,79.3
		c-0.6-7.3-3.7-14.7-4-18.1c-0.3-3.4,0.1-9.1,0.3-12c0.1-3,6.5-4.9,7.1-7c0.6-2.1,4.8-10.5,2.4-16.8s-8.5-6.1-11.6-4.6
		c-3.1,1.5-6.1,4.2-6.1,4.2s0.7-8.8-4.2-13.5C69.4,6.6,63.6,8.6,62,12.9s-0.6,18.9-0.3,22.9c0.3,4,1.3,17.8,1.3,17.8
		s-14.7,27-16.5,36.2c-1.8,9.2-0.9,11.4-0.9,11.4l-6.2,1.8c0,0-8-25.5-8.5-31.9s0-20.6-2.2-26.7s-5.3-13.4-11.3-14S6.7,34.1,6.3,40
		C5.9,46,8.5,79.8,9.4,85.3c0.9,5.5,8.5,44.8,8.6,45.6c0.1,0.7,1.9,5.8,1.9,5.8S18,143,16.4,147S14,159.1,16,164.3
		s4.8,18.6,8.3,24.5s5.5,13.7,8,17.2c2.5,3.6,7.4,8.9,6.2,10.8c-1.2,1.9-3.9,5.2-3.3,8.6c0.6,3.4,0,26,0.4,29.9s1.3,23,3.6,23.6
		c2.2,0.6,18.3,5.5,31.8,3.9s38.8,0.9,43.4-2.4c4.6-3.3,5.6-4.6,6.4-14.4c0.7-9.8-2.2-15.1-3.7-19.3c-1.5-4.2-4.5-10.4-3.9-15.4
		c0.6-5,0.6-11.4-0.4-13.6C111.7,215.6,109.8,211.4,109.8,211.4z"/>
	<rect x="36.2" y="217.7" class="st0" width="76.6" height="27.3"/>
	<g>
		<g>
			<path class="st1" d="M39.6,94.8c-1-4.1-1.3-8-2.4-12c-0.9-3.4-2-6.7-3-10.4c-2.5-9.8-0.7-19.4-3.3-29.5
				c-2.1-8.5-8.9-17.5-17.7-15.1C1.5,30.9,2.7,45.4,3.8,53.8c2.9,18.4,2.7,36.6,7.2,54.5l2.2,8.8c1.3,8,2.7,16.3,4.7,24.1
				c0.1,0.4,0.2,0.8,0.3,1.3c0,0,0.1-0.1,0.1-0.1c0.4-0.4,1-0.7,1.5-0.9c0.2-2.2,0.7-4.3,1.4-6.1c-6-24.6-10.3-49.6-11.8-75.1
				c-0.4-8.6-4.7-25.5,4.7-28.1c2.6-0.7,5.1,0.8,6.6,2.6c2.7,2.5,4.2,5.7,5.1,9.1c3.2,12.5,0.2,26.7-0.6,23.7
				c1.1,4.4,4.3,6.1,6.8,15.9c0.9,3.7,1.3,8,2.4,12c0.4,1.7,1.8,5.6,2.3,7.3c1.4-0.5,3.8-0.5,5.1-1.8C41.6,100,39.7,95.4,39.6,94.8z
				"/>
		</g>
		<g>
			<path class="st1" d="M63.7,202c5.7,0,10.4-14.7,10.4-18.4c0-0.6-0.7-1.2-1.3-1.2c-0.7,0-1,0.3-1,0.9c-1.3,5.8-3.4,12.6-8.7,16.2
				c-0.3,0.3-0.7,0.6-0.7,0.9C62.4,201.4,63.1,202,63.7,202z"/>
			<path class="st1" d="M119.2,237.2c0,0-0.3,0-0.7,0c-1.7-0.3-2.7-0.6-2.7-2.8c0-4.6,0.7-8.9,0.7-13.5c0-1.8-1-5.5-2.4-5.5
				c5.7-16.8,9.4-35.2,9.4-53c0-12.3-2.4-24.2-2.4-36.1c0-5,0.6-9.9,1.5-14.7c-1.8,0.5-1.4-5.4-3.5-5c0,0.2-1.3,3-2.1,6.8
				c-0.7,3.4-1,7-1,10.4c0,4.6,0.3,8.9,0.7,13.5c-0.7,2.4-1.7,5.2-1.7,7.7c0,4.3,1.7,8.3,1.7,12.9c-2.4,4.6-4.7,11.6-4.7,13.8
				c0,3.1,2.4,11.6,2.4,19.3c0,4.9-10.4,23.6-28.6,23.6H74.2c-5,0-15.5,0.9-15.5,3.1c0,1.5,4,1.8,16.1,1.8c14.5,0,34.3-0.6,36.3-0.6
				c0,0,0,0,0.3,0.3v3.4c0,3.7-0.7,7.4-0.7,11c0,0.9,0,2.1,0.3,3.1c-6.4,3.7-23.9,3.4-27.6,3.4c-22.2,0-27.9,0-45.1-1.8
				c0-3.4-0.3-7-0.3-10.4c0-15.6,3.4-5.2,3.4-10.4c0-0.3,0-0.3,0-0.6c-3.4-8-10.1-14.1-13.1-22.4c-1.3-4.3-2-8.9-3.4-13.2
				c-2.4-9.2-8.4-15.6-8.4-24.8s5.4-17.2,6.7-26c2.7-9.5-1.7-18.7,15.1-24.8c4-1.5,7.7-2.4,12.1-4.6c0,1.8,4.4,6.1,6.4,6.1
				c1.3,0,3.4-0.9,3.4-1.8c0-0.6-0.3-1.2-1-1.2c-0.7,0-1.7,0.6-2.4,0.6c-2,0-3.4-4.6-5-4.6c2-1.5,3.7-3.4,5.4-5.2
				c1.7-1.5,3.7-3.7,6.1-3.7c4.4,0,6.4,5.5,6.4,8.9c0,10.4-12.1,24.2-19.2,24.2c-1.3,0.3-2.4,1.2-2.4,2.4c0,1.2,1.7,2.4,1.7,4.9
				c0,4.9-7.7,5.8-7.7,6.7c0,0.9,0.7,1.2,1.3,1.2c1.3,0,2.7-0.3,3.7-0.9c0.7-0.9,2,4.9,3.4,8c0.7,1.5,0.7,3.1-0.7,4.6
				c-2.4,2.1-5.4,10.1-5.4,10.7c0,0.6,0.7,1.2,1.3,1.2c4.7,0,5.4-11.3,8.4-11.3c2.7,0,3.7,3.1,3.7,5.8c0,2.1-0.7,3.7-0.7,4.6
				c0,0.6,0.7,0.9,1.3,0.9c1,0,2-4.3,3-6.1c4.4,1.2,5.4,4.6,7.1,4.6c0.7,0,1.3-0.6,1.3-1.2c0-0.6-0.3-1.2-0.3-1.8
				c6.7,0,15.1,12.6,16.1,18.1c0,2.8-1.3,4.9-1.3,7c0,0.6,0.7,0.9,1.3,0.9c2,0,2.7-6.1,2.7-8.3c0-5.5-2-8.3-5-12.3c4,0,7.4,7,8.7,7
				c1,0,1.7-0.6,1.7-1.2c0-1-2.5-4.1-4.6-6.5c-1.1-0.4-2.2-1.1-3.2-2.1c-3.4-3.3-7-6.2-10.9-8.9c-1.6-0.1-2.6-0.9-3.2-2.2
				c-1-0.7-2.1-1.4-3.2-2c-1.5-0.9-2.8-2.2-3.6-3.6c-1.5-1-2.5-2.2-3.1-3.6c-1.5-0.5-4.1-2.6-4.1-6.3c1-2.7,2.1-4.8,3.3-6.4
				c2.8-8.3,11.4-14.6,13.3-23.2c-0.1,0.2-0.3,0.3-0.4,0.5c0.3-1.5,0.7-3.1,0.7-4.6c0-6.7-4-14.1-11.8-14.1
				c-6.7,0-14.8,10.1-17.2,11.6c-1.3,0.3-2.7,0.9-4,1.5c0,0-4.7,0.9-4.7,1.2c-12.5,0-15.8,12.7-17.3,21.1c-0.8,9.3-2.2,18.8-7.1,26
				c-0.9,3-1.2,6.4-1.2,9.3c0,7.7,4.4,13.8,7.1,20.8c3.7,9.5,4.4,18.7,10.1,27.3c2.4,3.7,5.4,7,7.1,11c-3.4,3.1-2.7,10.1-2.7,11.9
				c0,3.7,0.3,7.4,0.3,11c-1.7,1.2-3.4,3.1-3.4,5.2c0,6.7,0.3,28.5,0.3,34.7c0,4,3.4,4.9,7.4,5.5c5,0.6,22.9,2.1,38,2.1
				c24.2,0.6,34.3-0.9,47.1-2.1c5.4-0.6,4.4-5.8,4.4-9.2c0-6.1,0.3-27.6,1-31.3C129.3,240.3,123.9,237.9,119.2,237.2z"/>
		</g>
		<g>
			<path class="st1" d="M89,55.9c0.3-1.4,0.3-2.9,0.3-4.6v-2.1c6.5-3.9,10.3-13.9,10.3-19.3c0-6.4-3.4-12.5-10.3-12.5
				c-2.7,0-6.5,1.1-7.9,2.5C79.7,13,76.3,5.1,68.4,5.1c-7.9,0-10.7,7.9-10.7,15c0,11.4,2.4,21.8,2.4,32.9
				c-5.8,10.7-12.8,28.3-15.2,39.1c0,0.2-0.1,0.5-0.1,0.7C44.3,95.1,44,97,44,98.5c0,0.4,0,0.8,0.1,1.2c1.5-1,3.2-1.8,5.1-2.3
				c0.6-12.7,11.4-34.2,15.7-42.2c6.2-11.8,14.4-32.5,24-32.5c3.1,0,5.5,2.1,5.5,7.2c0,10-12.7,17.2-12.7,18.2
				c0,2.1,2.4,2.5,2.4,3.9c0,10.4-11.7,21.8-11.7,19.7c0,1.8,3.8,1.8,5.2,2.9c-0.3,7.9,0.7,16.5-4.5,22.2c-0.3,0.3-0.6,0.5-1,0.7
				c0.5,1.3,0.8,2.6,0.8,4c0.3,0,0.6-0.1,0.9-0.1c2.6,0,4,2.3,5.6,4.4c0.2,0,0.4,0.1,0.6,0.2c0.2,0.1,0.4,0.2,0.7,0.2
				c0,0,0.1-0.1,0.1-0.1c0,0,0,0,0,0c1.1-1.1,1.5-2.7,1.9-4.3c0-0.1,0.1-0.2,0.1-0.3c0-0.2,0-0.4,0.1-0.6c-0.1-0.5-0.2-1.1-0.2-1.6
				c0-4.3,1.4-8.6,1.4-12.2c0-3.6-0.7-7.2-0.7-11.1c0-2.1,1.7-4.3,2.7-4.3c2.7,0,2.4,8.2,2.4,11.4c0,3.2,0.1,7.4-0.2,11.3
				c0.2,0.3,0.3,0.6,0.3,1c0.4,3.6,1.5,7.1,4.5,9.4c-0.1-3.3,0-6.7,0.3-10c-0.1-0.3-0.1-0.7-0.2-1c-0.2-2-0.2-4,0.1-5.9
				c-0.1,0.1-0.1,0.1-0.2,0.2c0-2.1,0.3-4.3,0.3-6.8C93.8,72.7,92.4,64.2,89,55.9z M64.9,42.7c0-7.5-2.4-14.7-2.4-22.5
				c0-2.1,0.3-4.3,1.4-6.4c0.7-2.1,2.7-3.2,4.8-3.2c4.8,0,7.6,6.4,7.6,10.7C76.3,29.5,68,37.3,64.9,42.7z"/>
		</g>
		<path class="st1" d="M103.9,104.3c0.1,0,0.1-0.1,0.2-0.1c5.2-9.4,9.5-19.3,13.1-29.4c3.4-8.7,4.7-36.5,12.7-35.1
			c9,1.5,7.2,17.2,5.9,25.1c-0.4,2.8-0.6,6.3-4.6,5.6c-0.7-0.1-1.1,0.5-1.2,1.2c-0.2,1.4,3,2.3,2.7,4.7c-0.2,1-0.4,2.8-1,4.1
			c-2.1,6.7-7.4,23.6-11.4,24.7c-0.3-0.1-1.1,0.5-1.2,0.9c-0.2,1,0.9,2.6,0.8,3.7c-0.2,1-0.6,1.7-1,2.3c-0.1,0.3-0.1,0.7,0.2,1.1
			c-1.3,3.7-1.4,6.8-2,10.6c-0.2,1,0.1,3.4-0.1,4.3c1.6,0.1,2.2,0.2,3.7,1.1c0-0.3,0.1-0.6,0.1-0.9c3.6-22.8,16.8-41.9,20.4-64.7
			c1.5-9.3,1.8-26.7-10.8-28.8c-13.6-2.3-15.1,29-16.6,34.1c-2.9,10.3-10.4,26.4-15.5,36.1c0.4,1.4,3.4,2.3,3.3,3.7
			C102.4,109,103.3,103.9,103.9,104.3z"/>
		<path class="st1" d="M100.5,109.1c0,0.6,0.3,1.2,0.9,1.2c2.1,0.6,4.2,1.2,6.2,1.2c0.5,0.1,0.9-0.1,1-0.5c0-0.3,0-0.6,0-1
			c-0.2-0.4-0.5-0.6-1-0.6c-1.2,0-2.1-0.3-3.3-0.6c0.3-0.3,0.3-0.9,0.3-1.5c-1.2-3.6,0.3-7.1,1.8-10.4c0.2-0.6,0.4-1.2,0.7-1.8
			c-0.1,0-0.2-0.1-0.3-0.1c-1.6,1.1-3.4,1.8-5.3,2.1c-1.4,3.6-2.4,7.4-1.3,11.3C100.2,108.8,100.5,108.8,100.5,109.1z"/>
		<path class="st1" d="M99.2,106.9c-0.2-0.7-0.6-1.2-0.7-2c-4-3.7-6.2-9.3-5.1-14.7c-0.1-0.6-0.1-1.3-0.2-1.9
			c-1.4,0.6-2.8,1-4.2,1.3c0.2,2.3,0.5,4.7,0.9,6.9c0.3,2.1,0.9,4.5,1.8,6.2c0.9,1.8,2.7,3.3,3.9,4.8c0.6,0.6,1.2,0.9,1.8,0.6
			c0.3,0.3,0.6,0.6,0.9,0.6c0.6,0.6,1.8,0.8,2.6,1.4c1.2,0.6,1.5-1.1,0.3-1.9C100.7,107.8,100.1,107.2,99.2,106.9z"/>
		<path class="st1" d="M85.6,106.5c-0.6-0.3-1.2-0.9-2.1-1.2c-0.2-0.7-0.6-1.2-0.7-2c-2.1-1.9-3.7-4.4-4.6-7.1
			c-0.2,1.1-0.6,2.1-1.2,3c-0.3,0.5-0.7,1-1.2,1.4c0.1,0.2,0.1,0.3,0.2,0.5c0.9,1.8,2.7,3.3,3.9,4.8c0.6,0.6,1.2,0.9,1.8,0.6
			c0.3,0.3,0.6,0.6,0.9,0.6c0.6,0.6,1.2,0.9,2.1,1.5C85.9,109.1,86.8,107.4,85.6,106.5z"/>
		<path class="st1" d="M104,135.9c1.5,0.4,1.9-1.7,0.4-2.1c-8.7-2.6-16.2-7.7-22.5-13.9c-1-1.1-2.6,0.9-1.6,1.7
			C87.2,127.9,95,133.3,104,135.9z"/>
		<path class="st1" d="M61.3,128.2c0,0-1,3.1,3.5,9.6c4.5,6.5,18.5,15.7,24.9,26.1c0,0-5.8-0.9-9.3-3.7s-16.2-7.4-20.7-14.2
			s-5.4-10.8-4-14.7C57.2,127.3,61.3,128.2,61.3,128.2z"/>
		<path class="st1" d="M82,78.7c0,0,1.8,7.5,1.3,13.3c-0.6,5.8-1,9.9,1.3,12c2.4,2.1,3.9,3.9,3.1,4.6c-0.9,0.7-2.7,0.6-4.7-0.6
			s-4-2.1-5.4-4.1s-2.1-1.4-3,1.5c-0.9,2.9-3.3,6.2-3.3,6.2L74,99.5l3.8-4.7L82,78.7z"/>
		<path class="st1" d="M86.2,69c0,0,2.7,2.5,2.4,10.6c-0.3,8.1-1,14.9,0.6,19.1c1.6,4.2,5.5,10.3,11.8,11.8c6.3,1.6,8.1,1.4,8,0.1
			c-0.1-1.3-1-1.2-2.4-1.4s-2.3-1.6-2.2-3.8s0.5-3,1.8-6.2c1.3-3.1,4.1-9.5,5.2-13.3c1.1-3.8-5.9,0.8-7.9,6
			c-2.1,5.2-5.5,12.5-5.5,12.5s-4.4-4-4.4-10.8c0-6.7,1.4-27.2-4.7-37.7L86.2,69z"/>
	</g>
	<path class="st0" d="M64.8,276.3h-6l-2.1-2.7c-2.9,2.3-5.3,3.4-7.8,3.4c-4.6,0-8-3.3-8-7.9c0-3.4,1.4-5.5,5.9-8.4
		c-1.7-2.5-2.3-3.8-2.3-5.6c0-3.4,2.9-5.8,6.8-5.8c3.9,0,6.7,2.4,6.7,5.8c0,1.4-0.6,3-1.6,4.2c-0.7,0.8-1.4,1.4-2.9,2.4l3.8,5
		c2-1.8,2.3-2.1,4-4.1l3.5,3.1c-2.2,2.4-2.5,2.7-4.6,4.7L64.8,276.3z M49.4,264.5c-2.5,1.6-3.4,2.7-3.4,4.3c0,1.9,1.6,3.5,3.5,3.5
		c1.4,0,2.7-0.7,4.2-2.3L49.4,264.5z M53.3,255.3c0-1.1-0.8-1.9-1.8-1.9c-1.1,0-2,0.9-2,1.9c0,0.9,0.3,1.6,1.4,3
		C52.7,257.2,53.3,256.4,53.3,255.3z"/>
	<path class="st0" d="M95,272.8c-3.2,3-6.1,4.2-10.2,4.2c-4.1,0-7.4-1.4-9.8-4.1c-2.3-2.6-3.7-6.3-3.7-10.1
		c0-8.4,5.7-14.3,13.6-14.3c4.2,0,7.1,1.2,10.4,4.4l-3.7,3.7c-2.2-2-4.1-2.8-6.4-2.8c-4.8,0-8.2,3.7-8.2,9c0,5.3,3.5,9.1,8.5,9.1
		c2.5,0,4.4-0.9,6.1-2.8L95,272.8z"/>
	<path class="st0" d="M111.9,274.1c0,1.7-1.3,3-3,3c-1.8,0-3-1.3-3-3c0-1.7,1.3-3,3.1-3C110.6,271,111.9,272.3,111.9,274.1z"/>
	<path class="st0" d="M117.1,257.4c0,4.5-3.7,8.1-8.2,8.1c-4.7,0-8.4-3.6-8.4-8.1c0-2.3,0.9-4.4,2.6-6c1.5-1.4,3.5-2.2,5.8-2.2
		C113.7,249.3,117.1,252.8,117.1,257.4z M104.5,257.4c0,2.6,1.9,4.6,4.4,4.6c2.4,0,4.4-2,4.4-4.5c0-2.7-1.9-4.7-4.4-4.7
		C106.4,252.8,104.5,254.8,104.5,257.4z"/>
</g>
</svg>
