<?xml version="1.0" encoding="iso-8859-1"?>
<!-- Generator: Adobe Illustrator 25.2.1, SVG Export Plug-In . SVG Version: 6.00 Build 0)  -->
<svg version="1.1" id="Layer_1" xmlns="http://www.w3.org/2000/svg" xmlns:xlink="http://www.w3.org/1999/xlink" x="0px" y="0px"
	 viewBox="0 0 377.5 113.051" style="enable-background:new 0 0 377.5 113.051;" xml:space="preserve">
<g>
	<path style="fill:#ffffff;" d="M105.251,7.188c-3.256,0.153-6.801,1.891-9.147,5.989c1.952,0.392,5.998,4.191,5.906,12.535
		c-0.043,11.969-9.452,30.419-18.915,45.126c-0.396-16.178-2.732-35.045,1.493-48.055l-8.009-3.25l-0.006-0.121l-5.414-2.043
		c-3.162,12.477-13.086,37.963-22.243,56.644c1.852-12.053,2.913-25.521,3.012-36.282c0.011-15.23-7.587-22.61-19.889-22.033
		C14.795,16.507,0.09,27.712,0,48.99c-0.067,14.023,9.807,18.395,15.958,18.107l8.244-20.088l-0.143-0.477
		c-3.383,0.038-6.074-3.221-6.012-9.63c0.002-10.274,6.266-15.886,13.381-16.22c4.824-0.226,8.303,1.786,8.475,10.602
		c-0.091,13.542-4.062,42.253-12.879,60.435l16.097,8.19C49.185,92.613,59.8,66.37,67.735,44.845
		c-0.203,18.866,3.445,32.232-3.894,48.41l14.256,5.013c0.799-1.006,1.472-2.125,2.019-3.36
		c9.418-15.671,32.725-59.915,32.83-78.292C113.002,10.088,109.955,6.967,105.251,7.188z"/>
	<path style="fill:#ffffff;" d="M118.606,37.985c0.805,0.85,1.932,1.239,3.379,1.171c1.768-0.083,3.389-0.743,4.863-1.981
		c1.472-1.236,2.631-2.722,3.477-4.454c0.845-1.731,1.233-3.362,1.161-4.89c-0.06-1.285-0.471-2.294-1.23-3.025
		c-0.759-0.729-1.823-1.063-3.19-0.998c-2.011,0.094-3.755,0.72-5.231,1.877c-1.477,1.157-2.62,2.561-3.429,4.21
		c-0.81,1.651-1.178,3.239-1.106,4.766C117.367,36.029,117.8,37.137,118.606,37.985z"/>
	<path style="fill:#ffffff;" d="M213.041,33.556c0.805,0.85,1.931,1.239,3.379,1.171c1.767-0.083,3.389-0.743,4.862-1.981
		c1.473-1.236,2.632-2.722,3.478-4.455c0.845-1.731,1.233-3.361,1.16-4.889c-0.06-1.285-0.47-2.294-1.229-3.025
		c-0.759-0.729-1.823-1.063-3.19-0.998c-2.011,0.094-3.755,0.72-5.23,1.877c-1.478,1.158-2.621,2.562-3.429,4.21
		c-0.811,1.651-1.178,3.24-1.106,4.766C211.801,31.6,212.234,32.708,213.041,33.556z"/>
	<path style="fill:#ffffff;" d="M351.308,11.357l-0.878-0.684c-1.059,1.501-2.58,2.58-4.562,3.236
		c-1.984,0.658-4.465,1.056-7.438,1.195c-2.734,0.128-6.402,0.1-11.003-0.088c-3.874-0.14-7.14-0.188-9.798-0.145
		c0.716-1.887,1.027-3.874,0.929-5.966c-0.143-3.055-1.562-5.346-4.251-6.872c-2.69-1.525-6.086-2.193-10.186-2l-0.121,0.006
		c-10.449,0.571-18.806,4.952-25.07,13.142c-6.264,8.193-11.552,19.601-15.861,34.227l-3.45,12.334
		c-0.525,1.052-1.107,2.079-1.749,3.079c-1.202,1.87-3.019,3.508-5.451,4.91c0.396-1.872,0.558-3.572,0.486-5.1
		c-0.101-2.172-0.499-4.207-1.192-6.108c-0.694-1.902-1.655-3.912-2.882-6.03c-0.177-0.313-0.421-0.806-0.734-1.476
		c-0.315-0.669-0.674-1.499-1.084-2.488c-0.41-0.988-0.632-1.884-0.67-2.689c-0.067-1.448,0.18-2.608,0.743-3.48
		c0.563-0.873,1.247-1.328,2.052-1.366c0.482-0.022,0.889,0.079,1.222,0.306l1.034-1.136c0.02-1.289-0.594-2.369-1.844-3.238
		c-1.249-0.867-2.718-1.263-4.407-1.184c-1.368,0.064-2.678,0.47-3.932,1.212c-1.255,0.745-2.255,1.779-2.998,3.102
		c-5.367,7.585-9.333,14.057-11.901,19.415c-2.119,1.23-3.843,3.124-5.174,5.682c-1.187,2.287-1.793,4.609-1.822,6.968
		c-1.008,0.857-2.043,1.312-3.106,1.362c-2.332,0.11-3.571-1.403-3.718-4.539c-0.2-4.262,1.6-11.397,5.402-21.407
		c0.567-1.638,1.212-2.898,1.939-3.777c0.724-0.881,1.341-1.454,1.853-1.719c0.51-0.266,0.846-0.403,1.008-0.411l-0.578-2.028
		c-4.04,1.48-7.468,2.286-10.283,2.418c-1.769,0.083-3.229-0.13-4.381-0.641l-1.482,1.882c0.083,0.078,0.293,0.249,0.628,0.515
		c0.334,0.267,0.51,0.561,0.525,0.882l0.006,0.12l-5.202,17.911c-0.242,0.621-0.622,1.517-1.143,2.693
		c-0.983,2.222-2.216,4.295-3.697,6.218c-1.481,1.924-3.027,2.921-4.635,2.997c-2.332,0.109-3.572-1.403-3.718-4.539
		c-0.143-3.056,0.801-7.814,2.836-14.276l5.538-18.513c2.428-8.333,3.716-12.664,3.863-12.994c0.567-1.638,1.212-2.897,1.939-3.778
		c0.723-0.88,1.361-1.453,1.913-1.721c0.55-0.268,0.907-0.405,1.069-0.412l-0.579-2.028c-3.798,1.468-7.227,2.272-10.282,2.416
		c-1.77,0.083-3.191-0.131-4.26-0.646l-1.604,1.888l1.032,1.402l-7.473,26.219c-0.482-1.671-1.373-3.079-2.676-4.226
		c-1.303-1.147-3.242-1.662-5.814-1.542c-4.342,0.204-8.222,2.12-11.636,5.744c-3.417,3.625-6.029,8.061-7.838,13.301
		c-1.133,3.282-1.867,6.451-2.205,9.506c-0.677,1.179-1.43,2.313-2.265,3.398c-1.481,1.923-3.027,2.921-4.634,2.996
		c-2.333,0.11-3.575-1.483-3.73-4.781l0.03-1.936c0.281-2.591,2.065-9.645,5.353-21.162c3.287-11.517,5.531-19.075,6.733-22.678
		c0.566-1.637,1.212-2.897,1.938-3.777c0.724-0.88,1.361-1.454,1.914-1.722c0.55-0.267,0.906-0.405,1.068-0.412l-0.699-2.022
		c-3.798,1.468-7.187,2.271-10.162,2.411c-1.769,0.082-3.229-0.131-4.381-0.641l-1.604,1.888l1.159,1.517l-12.038,42.81
		c-0.251,0.6-0.608,1.401-1.071,2.408c-1.025,2.225-2.276,4.298-3.758,6.221c-1.482,1.924-3.026,2.921-4.634,2.997
		c-2.333,0.109-3.572-1.403-3.719-4.539c-0.2-4.261,1.6-11.397,5.402-21.408c0.568-1.638,1.213-2.897,1.939-3.777
		c0.724-0.88,1.34-1.454,1.853-1.719c0.51-0.266,0.847-0.403,1.008-0.411l-0.578-2.028c-4.041,1.48-7.468,2.285-10.282,2.418
		c-1.769,0.083-3.23-0.13-4.382-0.641l-1.483,1.882c0.083,0.078,0.293,0.249,0.629,0.515c0.333,0.267,0.51,0.561,0.524,0.882
		l0.006,0.12l-6.869,23.651c-0.69,2.45-0.986,4.762-0.884,6.932c0.155,3.298,1.106,5.931,2.849,7.905
		c1.743,1.971,3.781,2.904,6.114,2.794l0.482-0.023l0.603-0.028c2.894-0.136,5.401-1.2,7.526-3.194
		c2.122-1.991,3.849-4.29,5.176-6.891c0.36-0.704,0.732-1.471,1.115-2.297c0.003,0.205,0.005,0.41,0.015,0.613
		c0.155,3.298,1.106,5.931,2.849,7.905c1.743,1.972,3.781,2.904,6.114,2.794c4.18-0.196,7.596-2.108,10.247-5.739
		c1.467-2.009,2.928-4.409,4.384-7.196c0.252,3.542,1.149,6.396,2.69,8.557c1.638,2.3,4.026,3.377,7.162,3.229
		c2.814-0.131,5.291-1.436,7.431-3.914c2.139-2.476,4.121-5.773,5.943-9.889c-0.054,0.567-0.058,1.332-0.013,2.298
		c0.147,3.136,1.01,5.655,2.59,7.555c1.58,1.9,3.46,2.878,5.639,2.938l0.362-0.017l0.241-0.011
		c4.175-0.277,7.689-2.295,10.535-6.054c1.536-2.029,2.992-4.363,4.37-6.995c-0.009,0.414-0.008,0.825,0.011,1.229
		c0.155,3.298,1.105,5.931,2.849,7.905c1.744,1.972,3.781,2.904,6.114,2.794l0.483-0.022l0.604-0.028
		c2.894-0.136,5.401-1.199,7.526-3.194c1.383-1.298,2.596-2.73,3.642-4.289c0.67,1.44,1.6,2.67,2.796,3.685
		c2.518,2.138,5.866,3.109,10.048,2.914l0.483-0.023c6.513-0.306,12.089-2.54,16.728-6.708c2.35-2.109,4.422-4.382,6.219-6.817
		l-3.323,11.88l11.337-0.532l5.695-20.333c0.624-1.637,1.262-3.176,1.913-4.622c2.214-4.262,4.513-7.762,6.896-10.49
		c3.553-4.067,6.638-6.101,9.257-6.101c1.214,0,1.823,0.656,1.823,1.963c-0.094,1.592-1.262,4.537-3.506,8.837
		c-2.152,4.489-3.835,8.439-5.049,11.852c-1.216,3.415-1.824,6.896-1.824,10.45c0,4.208,1.098,7.809,3.296,10.8
		c2.196,2.991,5.071,4.861,8.626,5.61l14.307-17.112l-0.421-1.123c-1.963,0-3.975-0.771-6.031-2.314
		c-2.058-1.543-3.086-3.857-3.086-6.943c0-1.494,0.232-2.946,0.701-4.348c0.467-1.403,1.122-2.944,1.963-4.628
		c1.028-2.244,1.776-4.16,2.244-5.751c0.467-1.589,0.701-3.318,0.701-5.19c0-2.71-0.656-4.838-1.964-6.381
		c-1.311-1.543-3.274-2.315-5.891-2.315c-5.285,0-10.339,2.461-15.162,7.358c-0.609,0.83-2.642,2.976-4.235,4.594
		c3.63-12.186,7.557-21.742,11.785-28.67c4.302-7.05,9.548-10.722,15.741-11.012c2.25-0.106,4.086,0.393,5.509,1.493
		c1.421,1.103,2.176,2.578,2.262,4.427c0.057,1.206-0.239,2.631-0.887,4.273c-4.097,0.273-7.787,1.09-11.066,2.452
		c-3.28,1.363-5.443,2.956-6.484,4.777c0.071,1.528,0.667,2.649,1.789,3.361c1.121,0.714,2.605,1.026,4.456,0.939
		c2.331-0.11,4.901-0.733,7.708-1.872c2.807-1.138,5.18-2.519,7.119-4.142c1.615,0.086,3.768,0.427,6.455,1.027
		c3.007,0.584,5.708,1.022,8.099,1.312c2.39,0.292,5.113,0.364,8.17,0.221c3.698-0.173,6.794-1.165,9.289-2.973
		C347.575,18.543,349.649,15.545,351.308,11.357z M179.829,56.025c-3.976,11.469-7.813,17.29-11.511,17.463
		c-2.171,0.101-3.34-1.615-3.506-5.155c-0.131-2.814,0.361-6.06,1.478-9.739c1.116-3.678,2.619-6.851,4.509-9.52
		c1.888-2.666,3.878-4.05,5.97-4.148c1.285-0.06,2.373,0.353,3.26,1.237c0.888,0.887,1.405,2.05,1.554,3.493
		C180.542,53.172,179.955,55.294,179.829,56.025z M240.188,67.277c-1.44,1.962-3.244,2.992-5.415,3.094
		c-1.368,0.064-2.511-0.285-3.434-1.048c-0.923-0.761-1.409-1.705-1.462-2.833c-0.056-1.205,0.257-2.267,0.938-3.186
		c0.683-0.919,1.506-1.401,2.471-1.446c0.724-0.034,1.263,0.304,1.619,1.012l1.27-1.268c0.088-1.535-0.355-2.824-1.33-3.868
		c-0.976-1.041-2.43-1.557-4.364-1.547c1.695-3.383,3.745-6.904,6.153-10.563c0.162,1.765,1.124,4.219,2.884,7.359
		c0.175,0.314,0.465,0.885,0.866,1.713c0.401,0.828,0.783,1.676,1.146,2.545c0.362,0.871,0.567,1.785,0.613,2.75
		C242.278,62.887,241.626,65.317,240.188,67.277z"/>
	<path style="fill:#ffffff;" d="M190.338,92.717c-14.232,0.667-27.625,1.577-40.184,2.732c-12.557,1.15-21.352,2.209-26.384,3.171
		l14.457,14.431c11.26-3.912,28.48-7.44,51.662-10.583c23.181-3.141,45.066-5.196,65.648-6.161l9.051-0.304l-2.559-3.022
		C245.031,91.361,221.134,91.273,190.338,92.717z"/>
	<path style="fill:#ffffff;" d="M331.476,55.977l-2.863-2.337c-1.372,1.675-1.602,1.921-3.21,3.475l-3.118-3.921
		c1.251-0.902,1.776-1.398,2.332-2.094c0.815-1.078,1.263-2.368,1.246-3.499c-0.04-2.728-2.362-4.562-5.487-4.388
		c-3.225,0.18-5.522,2.306-5.483,5.033c0.021,1.464,0.468,2.471,1.895,4.422c-3.623,2.566-4.762,4.261-4.721,7.055
		c0.054,3.692,2.852,6.233,6.609,6.023c2.061-0.115,3.977-1.055,6.31-3.083l1.727,2.068l4.887-0.273l-3.792-4.482
		C329.479,58.285,329.742,58.004,331.476,55.977z M320.49,46.437c0.864-0.048,1.505,0.581,1.518,1.446
		c0.014,0.931-0.475,1.624-1.925,2.604c-0.914-1.081-1.188-1.631-1.2-2.397C318.871,47.226,319.592,46.487,320.49,46.437z
		 M319.118,61.894c-1.528,0.085-2.844-1.139-2.867-2.703c-0.018-1.264,0.666-2.201,2.709-3.647l3.523,4.264
		C321.337,61.17,320.282,61.829,319.118,61.894z"/>
	<path style="fill:#ffffff;" d="M351.452,59.588c-4.011,0.224-6.93-2.725-6.992-7.005c-0.062-4.28,2.634-7.442,6.543-7.661
		c1.871-0.105,3.419,0.478,5.247,2.016l2.93-3.176c-2.677-2.427-5.031-3.266-8.473-3.074c-6.45,0.36-10.991,5.466-10.891,12.254
		c0.045,3.076,1.192,6.024,3.127,8.024c2.004,2.097,4.727,3.083,8.036,2.898c3.308-0.185,5.7-1.289,8.238-3.84l-2.819-2.988
		C355.05,58.684,353.49,59.474,351.452,59.588z"/>
	<path style="fill:#ffffff;" d="M370.507,57.975c-1.463,0.082-2.478,1.171-2.458,2.568c0.021,1.43,1.067,2.404,2.496,2.324
		c1.396-0.078,2.444-1.169,2.425-2.533C372.948,58.871,371.903,57.897,370.507,57.975z"/>
	<path style="fill:#ffffff;" d="M375.387,41.597c-1.32-1.231-3.117-1.846-5.046-1.741c-1.955,0.109-3.737,0.881-5.02,2.175
		c-1.444,1.466-2.224,3.359-2.195,5.33c0.027,1.85,0.773,3.55,2.102,4.789c1.294,1.206,2.999,1.857,4.842,1.857
		c0.146,0,0.294-0.004,0.441-0.012c3.91-0.218,7.045-3.544,6.988-7.416C377.471,44.609,376.72,42.839,375.387,41.597z
		 M373.422,46.805c0.026,1.768-1.349,3.284-3.064,3.38c-0.819,0.042-1.587-0.226-2.165-0.765c-0.613-0.571-0.958-1.383-0.971-2.286
		c-0.028-1.902,1.276-3.357,3.1-3.459c0.059-0.003,0.119-0.005,0.177-0.005c0.739,0,1.422,0.261,1.94,0.743
		C373.059,44.991,373.408,45.84,373.422,46.805z"/>
</g>
</svg>
